<mxfile host="app.diagrams.net" modified="2024-05-02T08:23:01.229Z" agent="Mozilla/5.0 (Windows NT 10.0; Win64; x64) AppleWebKit/537.36 (KHTML, like Gecko) Chrome/121.0.0.0 Safari/537.36 OPR/107.0.0.0" etag="_DalpMfzFyjBCpLvCcp0" version="24.3.1" type="github">
  <diagram id="IncCn7JFb780kvAxidZT" name="Page-1">
    <mxGraphModel dx="1409" dy="981" grid="0" gridSize="10" guides="1" tooltips="1" connect="1" arrows="1" fold="1" page="0" pageScale="1" pageWidth="827" pageHeight="1169" math="0" shadow="0">
      <root>
        <mxCell id="0" />
        <mxCell id="1" parent="0" />
        <mxCell id="d-isnfEUL-nY157Qckpu-1" value="&amp;lt;&amp;lt;Abstract&amp;gt;&amp;gt;&lt;br&gt;Logement" style="swimlane;fontStyle=1;align=center;verticalAlign=top;childLayout=stackLayout;horizontal=1;startSize=41;horizontalStack=0;resizeParent=1;resizeParentMax=0;resizeLast=0;collapsible=1;marginBottom=0;whiteSpace=wrap;html=1;" vertex="1" parent="1">
          <mxGeometry x="94" y="-29" width="160" height="161" as="geometry" />
        </mxCell>
        <mxCell id="d-isnfEUL-nY157Qckpu-2" value="- adresse : String&lt;div&gt;- surface : Double&lt;/div&gt;&lt;div&gt;- nbPieces : int&lt;/div&gt;&lt;div&gt;- hasGarden : bool&lt;/div&gt;&lt;div&gt;- chauffage : Enum(String)&lt;/div&gt;" style="text;strokeColor=none;fillColor=none;align=left;verticalAlign=top;spacingLeft=4;spacingRight=4;overflow=hidden;rotatable=0;points=[[0,0.5],[1,0.5]];portConstraint=eastwest;whiteSpace=wrap;html=1;" vertex="1" parent="d-isnfEUL-nY157Qckpu-1">
          <mxGeometry y="41" width="160" height="86" as="geometry" />
        </mxCell>
        <mxCell id="d-isnfEUL-nY157Qckpu-3" value="" style="line;strokeWidth=1;fillColor=none;align=left;verticalAlign=middle;spacingTop=-1;spacingLeft=3;spacingRight=3;rotatable=0;labelPosition=right;points=[];portConstraint=eastwest;strokeColor=inherit;" vertex="1" parent="d-isnfEUL-nY157Qckpu-1">
          <mxGeometry y="127" width="160" height="8" as="geometry" />
        </mxCell>
        <mxCell id="d-isnfEUL-nY157Qckpu-4" value="setter/getter" style="text;strokeColor=none;fillColor=none;align=left;verticalAlign=top;spacingLeft=4;spacingRight=4;overflow=hidden;rotatable=0;points=[[0,0.5],[1,0.5]];portConstraint=eastwest;whiteSpace=wrap;html=1;" vertex="1" parent="d-isnfEUL-nY157Qckpu-1">
          <mxGeometry y="135" width="160" height="26" as="geometry" />
        </mxCell>
        <mxCell id="d-isnfEUL-nY157Qckpu-5" value="Maison" style="swimlane;fontStyle=1;align=center;verticalAlign=top;childLayout=stackLayout;horizontal=1;startSize=26;horizontalStack=0;resizeParent=1;resizeParentMax=0;resizeLast=0;collapsible=1;marginBottom=0;whiteSpace=wrap;html=1;" vertex="1" parent="1">
          <mxGeometry x="-77" y="233" width="160" height="142" as="geometry" />
        </mxCell>
        <mxCell id="d-isnfEUL-nY157Qckpu-6" value="- hasNeighbour : bool&lt;div&gt;- hasPool : bool&lt;/div&gt;&lt;div&gt;&lt;br&gt;&lt;/div&gt;" style="text;strokeColor=none;fillColor=none;align=left;verticalAlign=top;spacingLeft=4;spacingRight=4;overflow=hidden;rotatable=0;points=[[0,0.5],[1,0.5]];portConstraint=eastwest;whiteSpace=wrap;html=1;" vertex="1" parent="d-isnfEUL-nY157Qckpu-5">
          <mxGeometry y="26" width="160" height="82" as="geometry" />
        </mxCell>
        <mxCell id="d-isnfEUL-nY157Qckpu-7" value="" style="line;strokeWidth=1;fillColor=none;align=left;verticalAlign=middle;spacingTop=-1;spacingLeft=3;spacingRight=3;rotatable=0;labelPosition=right;points=[];portConstraint=eastwest;strokeColor=inherit;" vertex="1" parent="d-isnfEUL-nY157Qckpu-5">
          <mxGeometry y="108" width="160" height="8" as="geometry" />
        </mxCell>
        <mxCell id="d-isnfEUL-nY157Qckpu-8" value="setter/getter" style="text;strokeColor=none;fillColor=none;align=left;verticalAlign=top;spacingLeft=4;spacingRight=4;overflow=hidden;rotatable=0;points=[[0,0.5],[1,0.5]];portConstraint=eastwest;whiteSpace=wrap;html=1;" vertex="1" parent="d-isnfEUL-nY157Qckpu-5">
          <mxGeometry y="116" width="160" height="26" as="geometry" />
        </mxCell>
        <mxCell id="d-isnfEUL-nY157Qckpu-10" value="Extends" style="endArrow=block;endSize=16;endFill=0;html=1;rounded=0;exitX=0.5;exitY=0;exitDx=0;exitDy=0;entryX=0.495;entryY=1.131;entryDx=0;entryDy=0;entryPerimeter=0;" edge="1" parent="1" source="d-isnfEUL-nY157Qckpu-5" target="d-isnfEUL-nY157Qckpu-4">
          <mxGeometry width="160" relative="1" as="geometry">
            <mxPoint x="220" y="280" as="sourcePoint" />
            <mxPoint x="156" y="155" as="targetPoint" />
          </mxGeometry>
        </mxCell>
        <mxCell id="d-isnfEUL-nY157Qckpu-11" value="Appartement" style="swimlane;fontStyle=1;align=center;verticalAlign=top;childLayout=stackLayout;horizontal=1;startSize=26;horizontalStack=0;resizeParent=1;resizeParentMax=0;resizeLast=0;collapsible=1;marginBottom=0;whiteSpace=wrap;html=1;" vertex="1" parent="1">
          <mxGeometry x="272" y="233" width="160" height="87" as="geometry" />
        </mxCell>
        <mxCell id="d-isnfEUL-nY157Qckpu-12" value="&lt;div&gt;- etage : int&lt;/div&gt;" style="text;strokeColor=none;fillColor=none;align=left;verticalAlign=top;spacingLeft=4;spacingRight=4;overflow=hidden;rotatable=0;points=[[0,0.5],[1,0.5]];portConstraint=eastwest;whiteSpace=wrap;html=1;" vertex="1" parent="d-isnfEUL-nY157Qckpu-11">
          <mxGeometry y="26" width="160" height="27" as="geometry" />
        </mxCell>
        <mxCell id="d-isnfEUL-nY157Qckpu-13" value="" style="line;strokeWidth=1;fillColor=none;align=left;verticalAlign=middle;spacingTop=-1;spacingLeft=3;spacingRight=3;rotatable=0;labelPosition=right;points=[];portConstraint=eastwest;strokeColor=inherit;" vertex="1" parent="d-isnfEUL-nY157Qckpu-11">
          <mxGeometry y="53" width="160" height="8" as="geometry" />
        </mxCell>
        <mxCell id="d-isnfEUL-nY157Qckpu-14" value="setter/getter" style="text;strokeColor=none;fillColor=none;align=left;verticalAlign=top;spacingLeft=4;spacingRight=4;overflow=hidden;rotatable=0;points=[[0,0.5],[1,0.5]];portConstraint=eastwest;whiteSpace=wrap;html=1;" vertex="1" parent="d-isnfEUL-nY157Qckpu-11">
          <mxGeometry y="61" width="160" height="26" as="geometry" />
        </mxCell>
        <mxCell id="d-isnfEUL-nY157Qckpu-15" value="Extends" style="endArrow=block;endSize=16;endFill=0;html=1;rounded=0;exitX=0.5;exitY=0;exitDx=0;exitDy=0;entryX=0.51;entryY=0.977;entryDx=0;entryDy=0;entryPerimeter=0;" edge="1" parent="1" source="d-isnfEUL-nY157Qckpu-11" target="d-isnfEUL-nY157Qckpu-4">
          <mxGeometry width="160" relative="1" as="geometry">
            <mxPoint x="13" y="243" as="sourcePoint" />
            <mxPoint x="181" y="131" as="targetPoint" />
          </mxGeometry>
        </mxCell>
      </root>
    </mxGraphModel>
  </diagram>
</mxfile>
